<svg xmlns="http://www.w3.org/2000/svg" viewBox="0 0 808.25 404.06"><defs><style>.cls-1{fill:#fff;}</style></defs><g id="Camada_2" data-name="Camada 2"><g id="Camada_2-2" data-name="Camada 2"><path class="cls-1" d="M555.2,404.06h253v-101h-202V101h202V0h-253a50,50,0,0,0-50,50V354.06A50,50,0,0,0,555.2,404.06Z"/><rect class="cls-1" x="656.73" y="151.52" width="101.02" height="101.02" rx="30" transform="translate(64.29 559.26) rotate(-45)"/><path class="cls-1" d="M354,404.06H0l50.46-101H303V101H50.46L101,0H354a50,50,0,0,1,50,50V354.06A50,50,0,0,1,354,404.06Z"/><circle class="cls-1" cx="201.96" cy="202.03" r="59"/></g></g></svg>