<svg xmlns="http://www.w3.org/2000/svg" viewBox="0 0 2323.15 404.06"><defs><style>.cls-1{fill:#fff;}</style></defs><g id="Camada_2" data-name="Camada 2"><g id="Camada_2-2" data-name="Camada 2"><path class="cls-1" d="M707.11,354.06V0h-101V303.05H552.51L199.72,7a30,30,0,0,0-19.28-7H30A30,30,0,0,0,0,30V404.06H101V101h53.57L507.38,397a30,30,0,0,0,19.29,7H657.11A50,50,0,0,0,707.11,354.06Z"/><path class="cls-1" d="M837.92,0H1515V101H908.94v202H1515v101H837.92a30,30,0,0,1-30-30V30A30,30,0,0,1,837.92,0Z"/><path class="cls-1" d="M1889.09,404.06h-273v-101h202V101h-202V0h273a30,30,0,0,1,30,30V374.06A30,30,0,0,1,1889.09,404.06Z"/><path class="cls-1" d="M2050.11,404.06h273v-101h-202V101h202V0h-273a30,30,0,0,0-30,30V374.06A30,30,0,0,0,2050.11,404.06Z"/><rect class="cls-1" x="2171.63" y="151.52" width="101.02" height="101.02" rx="30" transform="translate(793.71 -1512.12) rotate(45)"/><circle class="cls-1" cx="1717.06" cy="202.03" r="59"/></g></g></svg>