<svg xmlns="http://www.w3.org/2000/svg" viewBox="0 0 10177.61 1272.25"><defs><style>.cls-1{fill:#71706f;}.cls-2{fill:#0033a1;}.cls-3{fill:#3a8dde;}</style></defs><g id="Camada_2" data-name="Camada 2"><g id="Camada_2-2" data-name="Camada 2"><path class="cls-1" d="M5868.28,605.63v29.18H5724.75V425.56h140.88v29.17H5758.05v59.83h93.43v27.12h-93.43v64Z"/><path class="cls-1" d="M6097.87,486.86V634.81h-33.3V425.56h27.11l118.48,151.19V425.85h33v209h-28.59Z"/><path class="cls-1" d="M6538.19,636.29a88.78,88.78,0,0,1-38.61-8.55,99.28,99.28,0,0,1-31.38-23.43,110.22,110.22,0,0,1-20.93-34.19,111.53,111.53,0,0,1-7.51-40.82,107.94,107.94,0,0,1,28.44-73.83,99,99,0,0,1,31.53-23,92.45,92.45,0,0,1,39.35-8.4q30.06,0,50.54,12.53a80.58,80.58,0,0,1,30.8,33.15L6595.08,488q-8.55-17.09-23.58-25.64a65.62,65.62,0,0,0-33-8.55,57.69,57.69,0,0,0-27,6.19A62.88,62.88,0,0,0,6491,477a79.22,79.22,0,0,0-13.12,24.46,90.08,90.08,0,0,0-4.57,28.73,86.63,86.63,0,0,0,5,29.77,75.55,75.55,0,0,0,14.14,24.32A65.78,65.78,0,0,0,6514,600.62a60.74,60.74,0,0,0,26.52,5.9,66,66,0,0,0,32.86-8.7q15.48-8.69,29-26.08v33.6Q6575,636.29,6538.19,636.29Zm60.72-82.82h-43.62V528.71h71.62v106.1h-28Z"/><path class="cls-1" d="M6970.26,605.63v29.18H6826.73V425.56h140.88v29.17H6860v59.83h93.43v27.12H6860v64Z"/><path class="cls-1" d="M7199.85,486.86V634.81h-33.3V425.56h27.11l118.48,151.19V425.85h33v209h-28.59Z"/><path class="cls-1" d="M7726.52,425.56V634.81h-33V542.56H7588v92.25h-33.3V425.56H7588v87.53h105.52V425.56Z"/><path class="cls-1" d="M7996.2,425.56h31.24l81.35,209.25H8074l-20.45-56.88h-83.68l-20.54,56.88h-34.78Zm48.57,127.91-33-91.66-33.11,91.66Z"/><path class="cls-1" d="M8296.82,634.81V425.56h91.07a57.15,57.15,0,0,1,25.93,5.89,68.14,68.14,0,0,1,20.49,15.62,73.54,73.54,0,0,1,13.55,22,66,66,0,0,1,4.87,24.61,71.14,71.14,0,0,1-5,26.67,62.69,62.69,0,0,1-14.3,21.66,55.43,55.43,0,0,1-21.66,13.27L8461,634.81h-37.14L8378.46,562h-48.34v72.8Zm33.3-102h57.47a25.8,25.8,0,0,0,16.21-5.46,37.85,37.85,0,0,0,11.2-14.29,45.43,45.43,0,0,0,4.13-19.45,40.33,40.33,0,0,0-4.86-19.75,40.77,40.77,0,0,0-12.24-14,27.7,27.7,0,0,0-16.21-5.16h-55.7Z"/><path class="cls-1" d="M8653.73,634.81V425.56H8687V634.81Z"/><path class="cls-1" d="M8956.41,425.56h31.24L9069,634.81h-34.78l-20.45-56.88h-83.68l-20.54,56.88h-34.78ZM9005,553.47,8972,461.81l-33.11,91.66Z"/><path class="cls-1" d="M9255,663.4,9262,633h-10.61V597.09h29.18V633l-10.32,30.36Z"/><path class="cls-1" d="M5724.75,952.5a109,109,0,0,1,26.67-71.18,97.09,97.09,0,0,1,31.83-24.17q18.72-9,42.59-9,28.59,0,49.07,12.82t30.51,32.87l-25.94,17.39q-5.59-12.68-14.59-20a53.18,53.18,0,0,0-19.6-10.32,77.11,77.11,0,0,0-20.63-3q-16.2,0-28.59,6.63a64,64,0,0,0-20.77,17.54,76,76,0,0,0-12.53,24.46,92.77,92.77,0,0,0-4.13,27.12,87.21,87.21,0,0,0,4.87,29.17,78.35,78.35,0,0,0,13.85,24.61,66.48,66.48,0,0,0,21.22,17,58.8,58.8,0,0,0,27,6.19,68.58,68.58,0,0,0,21.22-3.54,61.13,61.13,0,0,0,20.19-11.2,52.85,52.85,0,0,0,14.58-19.45l27.41,15.33a63.12,63.12,0,0,1-19.89,26.52,98.1,98.1,0,0,1-30.8,16.51,108.48,108.48,0,0,1-33.89,5.6,86.55,86.55,0,0,1-39.79-9.29,103.53,103.53,0,0,1-31.68-24.75,115.46,115.46,0,0,1-20.78-34.78A108.8,108.8,0,0,1,5724.75,952.5Z"/><path class="cls-1" d="M6185.7,1060.37a91.51,91.51,0,0,1-40.37-8.84,100,100,0,0,1-31.69-24A110.42,110.42,0,0,1,6093,993.32a109.22,109.22,0,0,1-7.22-39.05,105.8,105.8,0,0,1,7.66-39.94,110.84,110.84,0,0,1,21.37-33.89,104.31,104.31,0,0,1,31.83-23.58,91.23,91.23,0,0,1,39.94-8.7q22.68,0,40.82,9.14a101.81,101.81,0,0,1,31.39,24.46A111.91,111.91,0,0,1,6279.13,916a110.37,110.37,0,0,1-.29,78.55,106.38,106.38,0,0,1-21.08,33.89,102,102,0,0,1-31.83,23.43Q6207.81,1060.37,6185.7,1060.37Zm-66-106.1a90.08,90.08,0,0,0,4.57,28.73,77.52,77.52,0,0,0,13.27,24.46,63.3,63.3,0,0,0,20.92,17q12.23,6.19,27.85,6.19,15.91,0,28.3-6.49a63.09,63.09,0,0,0,20.92-17.53,80.92,80.92,0,0,0,13-24.61,88.68,88.68,0,0,0,4.42-27.7,86.47,86.47,0,0,0-4.71-28.59,79,79,0,0,0-13.56-24.32,65,65,0,0,0-21.08-16.94,59.44,59.44,0,0,0-27.26-6.19q-16.22,0-28.44,6.48a64.54,64.54,0,0,0-20.78,17.39,78.89,78.89,0,0,0-13,24.46A88.76,88.76,0,0,0,6119.68,954.27Z"/><path class="cls-1" d="M6658.74,1058.89V909.76l-61.6,113.18h-19.45l-61.6-113.18v149.13h-33.3V849.64h35.36l69.27,127.61,69.26-127.61H6692v209.25Z"/><path class="cls-1" d="M6988,1060.37a91.53,91.53,0,0,1-40.38-8.84,99.8,99.8,0,0,1-31.68-24,110.23,110.23,0,0,1-20.63-34.19,109,109,0,0,1-7.23-39.05,105.81,105.81,0,0,1,7.67-39.94,110.63,110.63,0,0,1,21.36-33.89,104.23,104.23,0,0,1,31.84-23.58,91.18,91.18,0,0,1,39.93-8.7q22.69,0,40.82,9.14A101.7,101.7,0,0,1,7061,881.76,111.91,111.91,0,0,1,7081.37,916a110.37,110.37,0,0,1-.29,78.55,106.35,106.35,0,0,1-21.07,33.89,102.24,102.24,0,0,1-31.83,23.43Q7010,1060.37,6988,1060.37Zm-66-106.1A90.08,90.08,0,0,0,6926.5,983a77.3,77.3,0,0,0,13.26,24.46,63.4,63.4,0,0,0,20.92,17q12.22,6.19,27.86,6.19,15.91,0,28.29-6.49a63.09,63.09,0,0,0,20.92-17.53,80.71,80.71,0,0,0,13-24.61,88.68,88.68,0,0,0,4.42-27.7,86.47,86.47,0,0,0-4.71-28.59,78.75,78.75,0,0,0-13.56-24.32,64.94,64.94,0,0,0-21.07-16.94,59.47,59.47,0,0,0-27.26-6.19q-16.22,0-28.45,6.48a64.4,64.4,0,0,0-20.77,17.39,79.12,79.12,0,0,0-13,24.46A88.74,88.74,0,0,0,6921.93,954.27Z"/><path class="cls-1" d="M7519.93,1058.89V849.64h74.27q33.89,0,56.44,14a89.53,89.53,0,0,1,34,37.72q11.49,23.73,11.49,52.61,0,31.83-12.52,55.41a89.09,89.09,0,0,1-35.52,36.55q-23,13-53.93,13ZM7662.57,954q0-22.11-8.1-38.9a63.74,63.74,0,0,0-23.29-26.53q-15.18-9.72-37-9.72h-41v150.9h41q22.1,0,37.28-10a64.27,64.27,0,0,0,23.14-27.12Q7662.57,975.5,7662.57,954Z"/><path class="cls-1" d="M8036.58,1029.72v29.17H7893V849.64h140.88v29.18H7926.35v59.82h93.43v27.12h-93.43v64Z"/><path class="cls-1" d="M8246.13,849.64l63.36,168.88,62.78-168.88h34.78l-82.23,209.25h-31.24l-82.52-209.25Z"/><path class="cls-1" d="M8738.32,1029.72v29.17H8594.78V849.64h140.88v29.18H8628.09v59.82h93.43v27.12h-93.43v64Z"/><path class="cls-1" d="M9293.28,898.86a36.06,36.06,0,0,0-8.4-6.93,84.44,84.44,0,0,0-13.26-6.78,116.26,116.26,0,0,0-16.5-5.3,76.62,76.62,0,0,0-18.42-2.21q-20.64,0-30.66,7.62t-10,21.12q0,10,5.6,15.84t17.25,9.53q11.64,3.68,28.73,7.78a197.74,197.74,0,0,1,37,12q15.48,7.05,23.87,18.48t8.4,30.5q0,15.56-6,27a50.78,50.78,0,0,1-16.65,18.62,77.15,77.15,0,0,1-24.46,10.71,120.94,120.94,0,0,1-29.77,3.52,145.57,145.57,0,0,1-31.1-3.39,147.81,147.81,0,0,1-29.47-9.73,136,136,0,0,1-26.08-15.47l15.33-28.3a53.09,53.09,0,0,0,10.9,8.41,129.48,129.48,0,0,0,16.95,8.69,134.31,134.31,0,0,0,20.92,6.93,96.55,96.55,0,0,0,23.14,2.8q19.74,0,30.21-6.87t10.46-20q0-10.27-6.93-16.58t-19.74-10.72q-12.83-4.39-30.8-8.8-20.64-5.28-34.48-12t-20.63-17q-6.8-10.28-6.78-26.71,0-20.53,9.87-34.78T9199,855.36q17.39-7.2,38.61-7.2a114.26,114.26,0,0,1,27,3.1,119.91,119.91,0,0,1,23.87,8.4,103.53,103.53,0,0,1,19.6,12.08Z"/><path class="cls-1" d="M9655.21,1029.72v29.17H9511.67V849.64h140.88v29.18H9545v59.82h93.43v27.12H9545v64Z"/><path class="cls-1" d="M9851.49,1058.89V849.64h91.07a57.19,57.19,0,0,1,25.94,5.89A68.1,68.1,0,0,1,9989,871.15a73.36,73.36,0,0,1,13.56,22,66.21,66.21,0,0,1,4.86,24.61,71.14,71.14,0,0,1-5,26.67,62.57,62.57,0,0,1-14.29,21.67,55.52,55.52,0,0,1-21.66,13.26l49.21,79.57h-37.13l-45.39-72.79H9884.8v72.79Zm33.31-102h57.47a25.87,25.87,0,0,0,16.21-5.45,38.08,38.08,0,0,0,11.2-14.3,45.42,45.42,0,0,0,4.12-19.45A41.22,41.22,0,0,0,9956.71,884a27.71,27.71,0,0,0-16.21-5.15h-55.7Z"/><path class="cls-1" d="M10150.79,1058.89v-37.72h26.82v37.72Z"/><path class="cls-2" d="M1484.29,955.29V212.08h-212V848.2H1159.78L419.24,226.81a63,63,0,0,0-40.48-14.73H105A105,105,0,0,0,0,317v743.21H212V424.12H324.51l740.54,621.39a62.94,62.94,0,0,0,40.47,14.73h273.81A105,105,0,0,0,1484.29,955.29Z"/><path class="cls-2" d="M1800.87,212.08H3180.2l-106,212H1908V848.2H3074.3l-106,212H1800.87a105,105,0,0,1-105-105V317A105,105,0,0,1,1800.87,212.08Z"/><path class="cls-2" d="M3923.41,1060.24H3180.34l105.92-212h530.06V424.12H3286.26l106-212h531.17a105,105,0,0,1,105,104.95V955.29A105,105,0,0,1,3923.41,1060.24Z"/><path class="cls-2" d="M4345.36,1060.24h531.17v-212H4452.45V424.12h424.08v-212H4345.36A105,105,0,0,0,4240.4,317V955.29A105,105,0,0,0,4345.36,1060.24Z"/><rect class="cls-3" x="5269.09" width="31.49" height="1272.25"/></g></g></svg>