<svg xmlns="http://www.w3.org/2000/svg" viewBox="0 0 2323.47 683.9"><defs><style>.cls-1{fill:#fff;}</style></defs><g id="Camada_2" data-name="Camada 2"><g id="Camada_2-2" data-name="Camada 2"><polygon class="cls-1" points="15 612.9 58 612.9 58 598.9 15 598.9 15 570.9 62 570.9 62 556.9 0 556.9 0 655.9 63 655.9 63 641.9 15 641.9 15 612.9"/><path class="cls-1" d="M151,588.88a27.06,27.06,0,0,0-13.86-3.53q-9.9,0-14.91,3.67a20.86,20.86,0,0,0-7,7.88H113v-11H99v69h14v-35q0-11.24,5.46-17.13t14.53-5.9q7.94,0,12.47,4.29c3,2.85,4.54,7.28,4.54,13.26V654.9l14,1V614.22a31.9,31.9,0,0,0-3.48-15.42A25.07,25.07,0,0,0,151,588.88Z"/><path class="cls-1" d="M259,595.9h-2.4a26.53,26.53,0,0,0-7.93-8.14Q243.26,584,233.15,584a31.38,31.38,0,0,0-27.73,16.14Q201,607.84,201,618.79v2.89q0,10.71,4.39,18.42a30.16,30.16,0,0,0,11.81,11.82,32.89,32.89,0,0,0,16.2,4.1,34.26,34.26,0,0,0,11.53-1.66,21.65,21.65,0,0,0,7.42-4.31,25.93,25.93,0,0,0,4.39-5.15H259v21.83q0,4.17-4.1,4.17H213v13h47q6.51,0,10.26-3.9T274,669.6V585.9H259Zm0,24.93q0,10.5-6.09,16.45a22.9,22.9,0,0,1-30.82,0Q216,631.34,216,620.83v-1.26q0-10.79,6.09-16.6a21.34,21.34,0,0,1,15.34-5.82q9.52,0,15.55,5.82t6,16.6Z"/><path class="cls-1" d="M363.05,588.75a33.83,33.83,0,0,0-17.49-4.43,35.93,35.93,0,0,0-18.05,4.43,31,31,0,0,0-12.16,12.49A39.26,39.26,0,0,0,311,620.13v1.68a38.52,38.52,0,0,0,4.42,18.75,31.32,31.32,0,0,0,12.3,12.49,36.91,36.91,0,0,0,18.4,4.43q9.42,0,15.46-3a30,30,0,0,0,9.76-7.3,41.77,41.77,0,0,0,5.69-8.29l-11.94-6.18a25.87,25.87,0,0,1-6.39,8.43q-4.15,3.64-12.29,3.65a20.57,20.57,0,0,1-14.55-5.41Q326,634,325.75,624.9H379v-5.47a38.41,38.41,0,0,0-4.22-18.4A30.89,30.89,0,0,0,363.05,588.75ZM325.91,613.9q1.13-7.86,6.25-12.28t13.27-4.43q8.15,0,13.2,4.43t5.61,12.28Z"/><path class="cls-1" d="M468,588.88a27.06,27.06,0,0,0-13.86-3.53q-9.9,0-14.91,3.67a20.86,20.86,0,0,0-7,7.88H430v-11H416v69h14v-35q0-11.24,5.46-17.13t14.53-5.9q7.93,0,12.47,4.29c3,2.85,4.54,7.28,4.54,13.26V654.9l14,1V614.22a31.9,31.9,0,0,0-3.48-15.42A25.07,25.07,0,0,0,468,588.88Z"/><path class="cls-1" d="M574.64,588.51A28.58,28.58,0,0,0,560.43,585a32.39,32.39,0,0,0-11.07,1.61,20.1,20.1,0,0,0-7,4.11,20.66,20.66,0,0,0-4.07,5.16H536v-39H522v98h14v-35q0-11.24,5.46-17.13t14.53-5.9q7.93,0,12.47,4.29c3,2.85,4.54,7.28,4.54,13.26V654.9h15V613.61a30.68,30.68,0,0,0-3.57-15.27A25.14,25.14,0,0,0,574.64,588.51Z"/><path class="cls-1" d="M685,638.72V610.41q0-12.54-7.62-19.37t-20.93-6.84a35.18,35.18,0,0,0-14.7,2.79,26.55,26.55,0,0,0-9.77,7.32,28.92,28.92,0,0,0-5.33,10.11l13.3,4.32a16.71,16.71,0,0,1,5.13-9.06q3.88-3.48,11.23-3.49t11.09,3.63a13.05,13.05,0,0,1,3.6,9.62v4.46H649.43a36.86,36.86,0,0,0-13.79,2.43,21.32,21.32,0,0,0-9.57,7.21,20,20,0,0,0-3.5,12.08,20.65,20.65,0,0,0,3.5,12.14,21.82,21.82,0,0,0,9.43,7.57A33.68,33.68,0,0,0,649,657.9q7.29,0,11.71-2.07a18.41,18.41,0,0,0,6.72-4.93,34.47,34.47,0,0,0,3.43-5H673v-.13a9.33,9.33,0,0,0,3.1,7.41,11.77,11.77,0,0,0,8,2.72H695v-13h-6.12Q685,642.9,685,638.72Zm-14-11.41q0,8.7-5.33,13.69t-14,5q-6.32,0-10-2.81a9,9,0,0,1-3.65-7.58,8.24,8.24,0,0,1,3.51-7.23q3.5-2.46,9.26-2.46H671Z"/><path class="cls-1" d="M750.61,587.83a11.45,11.45,0,0,0-5.38,6.07H743v-8H729v69h14V614.5q0-7.93,4.52-11.77a17.3,17.3,0,0,1,11.58-3.83H768v-13h-8.24A19.73,19.73,0,0,0,750.61,587.83Z"/><rect class="cls-1" x="803" y="585.9" width="14" height="69"/><path class="cls-1" d="M810,557.22a9.92,9.92,0,0,0-7.09,2.74,10.17,10.17,0,0,0,0,14.18,10.63,10.63,0,0,0,14.25,0,10.35,10.35,0,0,0,0-14.18A9.85,9.85,0,0,0,810,557.22Z"/><path class="cls-1" d="M915,638.72V610.41q0-12.54-7.62-19.37t-20.93-6.84a35.18,35.18,0,0,0-14.7,2.79,26.55,26.55,0,0,0-9.77,7.32,28.92,28.92,0,0,0-5.33,10.11l13.3,4.32a16.71,16.71,0,0,1,5.13-9.06q3.88-3.48,11.23-3.49t11.09,3.63a13.05,13.05,0,0,1,3.6,9.62v4.46H879.43a36.89,36.89,0,0,0-13.79,2.43,21.38,21.38,0,0,0-9.57,7.21,20,20,0,0,0-3.5,12.08,20.65,20.65,0,0,0,3.5,12.14,21.88,21.88,0,0,0,9.43,7.57A33.68,33.68,0,0,0,879,657.9q7.29,0,11.72-2.07a18.37,18.37,0,0,0,6.71-4.93,34.47,34.47,0,0,0,3.43-5H903v-.13a9.33,9.33,0,0,0,3.1,7.41,11.77,11.77,0,0,0,8,2.72H925v-13h-6.12Q915,642.9,915,638.72Zm-14-11.41q0,8.7-5.34,13.69t-14,5q-6.32,0-10-2.81a9.07,9.07,0,0,1-3.65-7.58,8.26,8.26,0,0,1,3.51-7.23q3.51-2.46,9.27-2.46H901Z"/><path class="cls-1" d="M967.35,637.46a9.94,9.94,0,0,0-7,2.59,8.81,8.81,0,0,0-2.81,6.78,8.47,8.47,0,0,0,2.81,6.48,9.9,9.9,0,0,0,7,2.59H969v5a5,5,0,0,1-5,5h-4v7h4.92A12.07,12.07,0,0,0,977,660.83V647.11a9.37,9.37,0,0,0-9.65-9.65Z"/><path class="cls-1" d="M1114.34,642q-5.37,5.28-15.53,5.29a24,24,0,0,1-12.18-3.07,22,22,0,0,1-8.5-8.77,27.91,27.91,0,0,1-3.13-13.64v-1.26a27.91,27.91,0,0,1,3.13-13.64,22.12,22.12,0,0,1,8.5-8.78,24.11,24.11,0,0,1,12.18-3.06,23.28,23.28,0,0,1,11.28,2.51,18.87,18.87,0,0,1,7.17,6.68,23.38,23.38,0,0,1,3.27,9.19l10.73-2.23a32.59,32.59,0,0,0-5.09-12.81,28.78,28.78,0,0,0-10.86-9.61q-6.88-3.62-16.64-3.62a36.76,36.76,0,0,0-17.75,4.25,31.08,31.08,0,0,0-12.4,12.12q-4.51,7.86-4.52,18.86V622a37.36,37.36,0,0,0,4.52,18.79,31,31,0,0,0,12.4,12.19,36.75,36.75,0,0,0,17.75,4.24q9.75,0,16.64-3.62a29.27,29.27,0,0,0,10.93-9.6,37.62,37.62,0,0,0,5.57-12.68L1121,628.91A23,23,0,0,1,1114.34,642Z"/><path class="cls-1" d="M1220.27,589.33a40.63,40.63,0,0,0-36.54,0,30.69,30.69,0,0,0-12.32,12.32,37.89,37.89,0,0,0-4.41,18.62v1.82a37.76,37.76,0,0,0,4.41,18.69A30.83,30.83,0,0,0,1183.73,653a40.63,40.63,0,0,0,36.54,0,30.83,30.83,0,0,0,12.32-12.25,37.76,37.76,0,0,0,4.41-18.69v-1.82a37.89,37.89,0,0,0-4.41-18.62A30.69,30.69,0,0,0,1220.27,589.33Zm5.73,32.48q0,11.79-6.52,18.74t-17.48,7q-10.82,0-17.4-7t-6.6-18.74v-1.26q0-11.79,6.6-18.74t17.4-6.95q10.95,0,17.48,6.95t6.52,18.74Z"/><path class="cls-1" d="M1363.74,588.61a25.07,25.07,0,0,0-12.11-2.81q-8.73,0-13.58,3.51a22.23,22.23,0,0,0-7.25,8.59h-1.68s-3.9-6.46-7.23-8.8-7.65-3.51-13-3.51-9.64,1-12.64,3.09a17.33,17.33,0,0,0-6.46,7.22H1288v-9h-11v69h11V614.62q0-9.27,4.78-14.18a16.34,16.34,0,0,1,12.26-4.91q7.07,0,11,4t4,10.88V655.9h12V614.62q0-9.27,4.78-14.18a16.34,16.34,0,0,1,12.26-4.91q7.07,0,11,4t4,10.88V655.9h11V609.3a24.93,24.93,0,0,0-3-12.6A20.78,20.78,0,0,0,1363.74,588.61Z"/><path class="cls-1" d="M1467.27,589.33a40.63,40.63,0,0,0-36.54,0,30.69,30.69,0,0,0-12.32,12.32,37.89,37.89,0,0,0-4.41,18.62v1.82a37.76,37.76,0,0,0,4.41,18.69A30.83,30.83,0,0,0,1430.73,653a40.63,40.63,0,0,0,36.54,0,30.83,30.83,0,0,0,12.32-12.25,37.76,37.76,0,0,0,4.41-18.69v-1.82a37.89,37.89,0,0,0-4.41-18.62A30.69,30.69,0,0,0,1467.27,589.33Zm5.73,32.48q0,11.79-6.53,18.74T1449,647.49q-10.82,0-17.4-6.94t-6.6-18.74v-1.26q0-11.79,6.6-18.74t17.4-6.95q10.95,0,17.47,6.95t6.53,18.74Z"/><path class="cls-1" d="M1635,597.9h-2a22.94,22.94,0,0,0-4.75-6.11,24.32,24.32,0,0,0-8-4.77,34,34,0,0,0-12.07-1.9,31.55,31.55,0,0,0-16.25,4.29,31,31,0,0,0-11.65,12.21q-4.32,7.93-4.32,18.89v2.07a36.62,36.62,0,0,0,4.38,18.33,29.81,29.81,0,0,0,11.85,11.82,33.77,33.77,0,0,0,16.38,4.07q10.73,0,16.66-3.94a26.55,26.55,0,0,0,8.75-9h2v11h11v-98h-12Zm1,23.91q0,12.18-6.65,19t-17.28,6.79q-10.5,0-17.28-6.79t-6.79-19v-1.26q0-12.18,6.79-19t17.28-6.79q10.64,0,17.28,6.79t6.65,19Z"/><path class="cls-1" d="M1737.16,588.87a37.44,37.44,0,0,0-34.76.28,31.17,31.17,0,0,0-12.06,12.43,38.6,38.6,0,0,0-4.34,18.67v1.69a38.31,38.31,0,0,0,4.34,18.53,31,31,0,0,0,12.2,12.43,36.58,36.58,0,0,0,18.22,4.42q9.26,0,15.21-3a30,30,0,0,0,9.67-7.3,40.58,40.58,0,0,0,5.82-8.71l-9.53-4.63a27.63,27.63,0,0,1-7.29,9.69q-4.77,4.07-13.6,4.07-10.1,0-16.82-6.25t-7.15-17.34H1753v-5a37.26,37.26,0,0,0-4.21-18.12A29.33,29.33,0,0,0,1737.16,588.87Zm-39.61,26q1.4-9.54,7.44-14.88t15.44-5.34q9.27,0,15.24,5.34t6.53,14.88Z"/><polygon class="cls-1" points="1816.89 646.9 1814.93 646.9 1794.42 586.9 1782.33 586.9 1807.02 655.9 1824.8 655.9 1849.49 586.9 1837.4 586.9 1816.89 646.9"/><path class="cls-1" d="M1930.16,588.87a37.44,37.44,0,0,0-34.76.28,31.17,31.17,0,0,0-12.06,12.43,38.6,38.6,0,0,0-4.34,18.67v1.69a38.31,38.31,0,0,0,4.34,18.53,31,31,0,0,0,12.2,12.43,36.58,36.58,0,0,0,18.22,4.42q9.26,0,15.21-3a30,30,0,0,0,9.67-7.3,40.58,40.58,0,0,0,5.82-8.71l-9.53-4.63a27.63,27.63,0,0,1-7.29,9.69q-4.77,4.07-13.6,4.07-10.1,0-16.82-6.25t-7.15-17.34H1946v-5a37.26,37.26,0,0,0-4.21-18.12A29.33,29.33,0,0,0,1930.16,588.87Zm-40.12,26q1.41-9.54,7.45-14.88t15.44-5.34q9.27,0,15.23,5.34t6.53,14.88Z"/><path class="cls-1" d="M2083.31,619.49a73.88,73.88,0,0,0-13.13-3.44l-5.75-1a30.1,30.1,0,0,1-10.32-3.44,7.82,7.82,0,0,1-3.87-7.23,8.49,8.49,0,0,1,4.08-7.65q4.07-2.6,11.09-2.6a21.65,21.65,0,0,1,11.79,3q4.77,3,6,10.46l10.39-2.67a24,24,0,0,0-9.34-14.81q-7.23-5.26-18.88-5.27t-19,5.2q-7.15,5.19-7.16,14.46a16,16,0,0,0,3.23,10.25,22.07,22.07,0,0,0,8.71,6.46,52,52,0,0,0,12.07,3.51l5.76,1a45,45,0,0,1,11.72,3.58c2.86,1.45,4.29,4,4.29,7.51a9.58,9.58,0,0,1-4.5,8.29c-3,2.06-7.07,3.09-12.21,3.09a28.93,28.93,0,0,1-9.76-1.62,16.75,16.75,0,0,1-7.65-5.47,22.76,22.76,0,0,1-4.22-10.6l-10.52,2.38q1.82,12.78,10.59,18.68t21.56,5.89q12.63,0,20.15-5.47t7.51-15.59q0-6.6-3.44-10.67A22,22,0,0,0,2083.31,619.49Z"/><path class="cls-1" d="M2182.16,588.87a37.44,37.44,0,0,0-34.76.28,31.17,31.17,0,0,0-12.06,12.43,38.6,38.6,0,0,0-4.34,18.67v1.69a38.31,38.31,0,0,0,4.34,18.53,31,31,0,0,0,12.2,12.43,36.58,36.58,0,0,0,18.22,4.42q9.25,0,15.21-3a30,30,0,0,0,9.67-7.3,40.58,40.58,0,0,0,5.82-8.71l-9.53-4.63a27.63,27.63,0,0,1-7.29,9.69q-4.77,4.07-13.6,4.07-10.1,0-16.82-6.25t-7.15-17.34H2198v-5a37.26,37.26,0,0,0-4.21-18.12A29.33,29.33,0,0,0,2182.16,588.87Zm-39.95,26q1.39-9.54,7.44-14.88t15.45-5.34q9.26,0,15.23,5.34t6.53,14.88Z"/><path class="cls-1" d="M2255.38,589.08a13,13,0,0,0-5.47,6.82H2248v-9h-11v69h11v-42q0-8.73,4.49-12.89t11.81-4.15h8.7v-10h-7.92A19,19,0,0,0,2255.38,589.08Z"/><path class="cls-1" d="M2321.37,642.52a8,8,0,0,0-10.75,0,7.87,7.87,0,0,0,0,10.81,7.63,7.63,0,0,0,10.75-10.81Z"/><path class="cls-1" d="M707.42,354.06V0h-101V303.05H552.83L200,7a30,30,0,0,0-19.28-7H50.32a50,50,0,0,0-50,50V404.06h101V101h53.58L507.7,397a30,30,0,0,0,19.28,7H657.42A50,50,0,0,0,707.42,354.06Z"/><path class="cls-1" d="M858.24,0h657.11l-50.49,101H909.26v202H1464.9l-50.49,101H858.24a50,50,0,0,1-50-50V50A50,50,0,0,1,858.24,0Z"/><path class="cls-1" d="M1869.41,404.06h-354l50.45-101h252.52V101H1565.87L1616.36,0h253.05a50,50,0,0,1,50,50V354.06A50,50,0,0,1,1869.41,404.06Z"/><path class="cls-1" d="M2070.42,404.06h253v-101h-202V101h202V0h-253a50,50,0,0,0-50,50V354.06A50,50,0,0,0,2070.42,404.06Z"/></g></g></svg>