<svg xmlns="http://www.w3.org/2000/svg" viewBox="0 0 2323.15 656.6"><defs><style>.cls-1{fill:#fff;}</style></defs><g id="Camada_2" data-name="Camada 2"><g id="Camada_2-2" data-name="Camada 2"><polygon class="cls-1" points="381.45 611.56 425.92 611.56 425.92 598.65 381.45 598.65 381.45 570.17 432.66 570.17 432.66 556.28 365.6 556.28 365.6 655.9 433.92 655.9 433.92 642.01 381.45 642.01 381.45 611.56"/><polygon class="cls-1" points="596.67 628.26 540.27 556.28 527.36 556.28 527.36 655.9 543.21 655.9 543.21 585.47 598.77 655.9 612.38 655.9 612.38 556.42 596.67 556.42 596.67 628.26"/><path class="cls-1" d="M761,617.17h20.76v10.77a44.84,44.84,0,0,1-12.14,10.35,31.42,31.42,0,0,1-15.64,4.14,28.81,28.81,0,0,1-12.62-2.81,31.38,31.38,0,0,1-10.25-7.78,36,36,0,0,1-6.73-11.58A41.33,41.33,0,0,1,722,606.09a43,43,0,0,1,2.18-13.68,37.68,37.68,0,0,1,6.24-11.64,29.91,29.91,0,0,1,9.75-8.07,27.54,27.54,0,0,1,12.84-3,31.26,31.26,0,0,1,15.71,4.07A28,28,0,0,1,779.9,586l12.06-8.7a38.28,38.28,0,0,0-14.66-15.78q-9.75-6-24.06-6a44.09,44.09,0,0,0-18.73,4,47.1,47.1,0,0,0-15,10.95A51.42,51.42,0,0,0,706,605.67a53.24,53.24,0,0,0,13.54,35.71,47.1,47.1,0,0,0,14.94,11.15,42.27,42.27,0,0,0,18.38,4.07q16.41,0,28.9-12.91V655.9h13.33V605.39H761Z"/><polygon class="cls-1" points="906.02 611.56 950.5 611.56 950.5 598.65 906.02 598.65 906.02 570.17 957.23 570.17 957.23 556.28 890.17 556.28 890.17 655.9 958.5 655.9 958.5 642.01 906.02 642.01 906.02 611.56"/><polygon class="cls-1" points="1121.24 628.26 1064.84 556.28 1051.93 556.28 1051.93 655.9 1067.79 655.9 1067.79 585.47 1123.35 655.9 1136.96 655.9 1136.96 556.42 1121.24 556.42 1121.24 628.26"/><polygon class="cls-1" points="1302.79 597.95 1252.56 597.95 1252.56 556.28 1236.71 556.28 1236.71 655.9 1252.56 655.9 1252.56 611.98 1302.79 611.98 1302.79 655.9 1318.5 655.9 1318.5 556.28 1302.79 556.28 1302.79 597.95"/><path class="cls-1" d="M1446.87,556.28,1408,655.9h16.56l9.78-27.08h39.83l9.73,27.08h16.56l-38.72-99.62Zm-8.32,60.89,15.76-43.63L1470,617.17Z"/><path class="cls-1" d="M1655,611.7a29.76,29.76,0,0,0,6.8-10.31,33.87,33.87,0,0,0,2.39-12.7,31.56,31.56,0,0,0-2.32-11.71,34.94,34.94,0,0,0-6.45-10.45,32.34,32.34,0,0,0-9.75-7.44,27.27,27.27,0,0,0-12.35-2.81H1590V655.9h15.85V621.24h23l21.61,34.66h17.67L1644.69,618A26.49,26.49,0,0,0,1655,611.7Zm-14.1-6.94a12.31,12.31,0,0,1-7.72,2.59h-27.36V570.17h26.52a13.14,13.14,0,0,1,7.71,2.46,19.46,19.46,0,0,1,5.83,6.66,19.22,19.22,0,0,1,2.31,9.4,21.59,21.59,0,0,1-2,9.26A18.08,18.08,0,0,1,1640.91,604.76Z"/><rect class="cls-1" x="1759.88" y="556.28" width="15.85" height="99.61"/><path class="cls-1" d="M1918.84,556.28H1904L1865.1,655.9h16.56l9.78-27.08h39.83L1941,655.9h16.56Zm-23.2,60.89,15.76-43.63,15.68,43.63Z"/><path class="cls-1" d="M707.11,354.06V0h-101V303.05H552.51L199.72,7a30,30,0,0,0-19.28-7H50A50,50,0,0,0,0,50V404.06H101V101h53.57L507.38,397a30,30,0,0,0,19.29,7H657.11A50,50,0,0,0,707.11,354.06Z"/><path class="cls-1" d="M857.92,0H1515V101H908.94v202H1515v101H857.92a50,50,0,0,1-50-50V50A50,50,0,0,1,857.92,0Z"/><path class="cls-1" d="M1869.09,404.06h-253v-101h202V101h-202V0h253a50,50,0,0,1,50,50V354.06A50,50,0,0,1,1869.09,404.06Z"/><path class="cls-1" d="M2070.11,404.06h253v-101h-202V101h202V0h-253a50,50,0,0,0-50,50V354.06A50,50,0,0,0,2070.11,404.06Z"/><rect class="cls-1" x="2171.63" y="151.52" width="101.02" height="101.02" rx="30" transform="translate(793.71 -1512.12) rotate(45)"/><circle class="cls-1" cx="1717.06" cy="202.03" r="59"/></g></g></svg>