<svg xmlns="http://www.w3.org/2000/svg" viewBox="0 0 4320.37 606.09"><defs><style>.cls-1{fill:#fff;}</style></defs><g id="Camada_2" data-name="Camada 2"><g id="Camada_2-2" data-name="Camada 2"><path class="cls-1" d="M707.11,455.09V101h-101v303H552.51l-352.79-296a30,30,0,0,0-19.28-7H50A50,50,0,0,0,0,151V505.09H101v-303h53.57l352.79,296a30,30,0,0,0,19.29,7H657.11A50,50,0,0,0,707.11,455.09Z"/><path class="cls-1" d="M857.92,101H1515l-50.49,101H908.94v202h555.64l-50.49,101H857.92a50,50,0,0,1-50-50V151A50,50,0,0,1,857.92,101Z"/><path class="cls-1" d="M1869.09,505.09h-354l50.46-101h252.52v-202H1565.56l50.49-101h253a50,50,0,0,1,50,50V455.09A50,50,0,0,1,1869.09,505.09Z"/><path class="cls-1" d="M2070.11,505.09h253v-101h-202v-202h202V101h-253a50,50,0,0,0-50,50V455.09A50,50,0,0,0,2070.11,505.09Z"/><rect class="cls-1" x="2510.17" width="15" height="606.09"/><path class="cls-1" d="M2795.56,288.51v13.9h-68.38V202.72h67.12v13.9h-51.25v28.51h44.51V258h-44.51v30.47Z"/><path class="cls-1" d="M2904.94,231.93v70.48h-15.87V202.72H2902l56.44,72V202.86h15.73v99.55h-13.62Z"/><path class="cls-1" d="M3114.7,303.11a42.21,42.21,0,0,1-18.39-4.07,47.13,47.13,0,0,1-14.95-11.16,53.23,53.23,0,0,1-13.55-35.73A51.47,51.47,0,0,1,3081.36,217a47.14,47.14,0,0,1,15-10.95,44.17,44.17,0,0,1,18.74-4q14.33,0,24.08,6a38.42,38.42,0,0,1,14.68,15.79l-12.08,8.71a28,28,0,0,0-11.23-12.22,31.31,31.31,0,0,0-15.73-4.07,27.54,27.54,0,0,0-12.84,3,30.07,30.07,0,0,0-9.76,8.07,37.71,37.71,0,0,0-6.25,11.66,43,43,0,0,0-2.18,13.69,41.43,41.43,0,0,0,2.39,14.18,36,36,0,0,0,6.74,11.58,31.28,31.28,0,0,0,10.25,7.79,28.9,28.9,0,0,0,12.64,2.81,31.46,31.46,0,0,0,15.65-4.14,47,47,0,0,0,13.83-12.42v16Q3132.26,303.12,3114.7,303.11Zm28.93-39.45h-20.78V251.87H3157v50.54h-13.34Z"/><path class="cls-1" d="M3320.54,288.51v13.9h-68.38V202.72h67.11v13.9H3268v28.51h44.51V258H3268v30.47Z"/><path class="cls-1" d="M3429.91,231.93v70.48h-15.86V202.72H3427l56.44,72V202.86h15.72v99.55h-13.62Z"/><path class="cls-1" d="M3680.82,202.72v99.69h-15.73v-44h-50.26v44H3599V202.72h15.87v41.7h50.26v-41.7Z"/><path class="cls-1" d="M3809.29,202.72h14.88l38.76,99.69h-16.57l-9.74-27.1h-39.87l-9.78,27.1H3770.4Zm23.14,60.94L3816.73,220,3801,263.66Z"/><path class="cls-1" d="M3952.5,302.41V202.72h43.39a27.24,27.24,0,0,1,12.35,2.81A32.42,32.42,0,0,1,4018,213a34.94,34.94,0,0,1,6.46,10.46,31.46,31.46,0,0,1,2.32,11.73,33.87,33.87,0,0,1-2.39,12.7,29.78,29.78,0,0,1-6.81,10.32,26.37,26.37,0,0,1-10.32,6.32l23.45,37.91H4013l-21.62-34.68h-23v34.68Zm15.87-48.58h27.38a12.26,12.26,0,0,0,7.72-2.6,18.11,18.11,0,0,0,5.34-6.81,21.59,21.59,0,0,0,2-9.26,19.61,19.61,0,0,0-8.14-16.08,13.17,13.17,0,0,0-7.72-2.46h-26.54Z"/><path class="cls-1" d="M4122.53,302.41V202.72h15.87v99.69Z"/><path class="cls-1" d="M4266.73,202.72h14.88l38.76,99.69H4303.8l-9.74-27.1h-39.87l-9.78,27.1h-16.57Zm23.14,60.94L4274.17,220l-15.77,43.67Z"/><path class="cls-1" d="M2727.18,504.46V404.77h15.87v99.69Z"/><path class="cls-1" d="M2858.46,434v70.48H2842.6V404.77h12.91l56.45,72V404.91h15.72v99.55h-13.62Z"/><path class="cls-1" d="M3100.66,418.67h-33.13v85.79h-15.87V418.67h-33.28v-13.9h82.28Z"/><path class="cls-1" d="M3259.6,490.56v13.9h-68.38V404.77h67.12v13.9h-51.25v28.5h44.51v12.92h-44.51v30.47Z"/><path class="cls-1" d="M3392,505.16a42.22,42.22,0,0,1-18.4-4.07,47.13,47.13,0,0,1-15-11.16,53.23,53.23,0,0,1-13.55-35.73A51.47,51.47,0,0,1,3358.66,419a47.25,47.25,0,0,1,15-10.95,44,44,0,0,1,18.75-4q14.31,0,24.08,6a38.46,38.46,0,0,1,14.67,15.79l-12.08,8.71a28,28,0,0,0-11.23-12.22,31.3,31.3,0,0,0-15.72-4.07,27.43,27.43,0,0,0-12.85,2.95,30.07,30.07,0,0,0-9.76,8.07,37.6,37.6,0,0,0-6.25,11.66,43,43,0,0,0-2.17,13.69,41.42,41.42,0,0,0,2.38,14.18,36,36,0,0,0,6.74,11.58,31.41,31.41,0,0,0,10.25,7.79,28.93,28.93,0,0,0,12.64,2.81,31.46,31.46,0,0,0,15.65-4.14,46.9,46.9,0,0,0,13.83-12.43v16Q3409.56,505.17,3392,505.16Zm28.92-39.45h-20.78v-11.8h34.12v50.55h-13.34Z"/><path class="cls-1" d="M3529.46,504.46V404.77h43.39a27.24,27.24,0,0,1,12.35,2.81A32.26,32.26,0,0,1,3595,415a34.94,34.94,0,0,1,6.46,10.46,31.46,31.46,0,0,1,2.32,11.73,33.87,33.87,0,0,1-2.39,12.7,29.78,29.78,0,0,1-6.81,10.32,26.37,26.37,0,0,1-10.32,6.32l23.45,37.91H3590l-21.63-34.68h-23v34.68Zm15.87-48.58h27.38a12.26,12.26,0,0,0,7.72-2.6,18,18,0,0,0,5.33-6.81,21.63,21.63,0,0,0,2-9.26,19.68,19.68,0,0,0-8.14-16.08,13.18,13.18,0,0,0-7.73-2.46h-26.53Z"/><path class="cls-1" d="M3728.28,404.77h14.88l38.75,99.69h-16.57l-9.74-27.1h-39.86l-9.79,27.1h-16.57Zm23.14,60.94L3735.72,422,3720,465.71Z"/><path class="cls-1" d="M3871.49,504.46V404.77h35.38q16.15,0,26.89,6.67a42.71,42.71,0,0,1,16.22,18,56.75,56.75,0,0,1,5.47,25.07q0,15.16-6,26.39a42.43,42.43,0,0,1-16.92,17.41q-11,6.18-25.7,6.18Zm68-50a42.28,42.28,0,0,0-3.86-18.54,30.4,30.4,0,0,0-11.1-12.63q-7.23-4.63-17.62-4.64h-19.51v71.89h19.51q10.53,0,17.76-4.77a30.63,30.63,0,0,0,11-12.92A43.19,43.19,0,0,0,3939.45,454.48Z"/><path class="cls-1" d="M4074.38,404.77h14.88L4128,504.46h-16.57l-9.74-27.1h-39.86l-9.79,27.1h-16.57Zm23.13,60.94L4081.82,422l-15.77,43.67Z"/></g></g></svg>